# This file uses centimeters as units for non-parametric coordinates.

mtllib Download Box.mtl
g default
v -1.993545 0.507506 -0.007417
v -1.870566 0.507506 -0.007417
v -1.993545 0.937785 0.460965
v -1.870566 0.937785 0.460965
v -1.993545 0.937785 -0.460965
v -1.870566 0.937785 -0.460965
v -1.993545 0.935249 0.249957
v -1.870566 0.935249 0.249957
v -1.993545 1.705076 0.249957
v -1.870566 1.705076 0.249957
v -1.993545 1.705076 -0.249957
v -1.870566 1.705076 -0.249957
v -1.993545 0.935249 -0.249957
v -1.870566 0.935249 -0.249957
vt 0.375000 0.000000
vt 0.625000 0.000000
vt 0.375000 0.250000
vt 0.625000 0.250000
vt 0.375000 0.500000
vt 0.625000 0.500000
vt 0.375000 1.000000
vt 0.625000 1.000000
vt 0.875000 0.250000
vt 0.125000 0.250000
vt 0.375000 0.000000
vt 0.625000 0.000000
vt 0.625000 0.250000
vt 0.375000 0.250000
vt 0.625000 0.500000
vt 0.375000 0.500000
vt 0.625000 0.750000
vt 0.375000 0.750000
vt 0.625000 1.000000
vt 0.375000 1.000000
vt 0.875000 0.000000
vt 0.875000 0.250000
vt 0.125000 0.000000
vt 0.125000 0.250000
vn 0.000000 -0.736427 0.676517
vn 0.000000 -0.736427 0.676517
vn 0.000000 -0.736427 0.676517
vn 0.000000 -0.736427 0.676517
vn 0.000000 1.000000 0.000000
vn 0.000000 1.000000 0.000000
vn 0.000000 1.000000 0.000000
vn 0.000000 1.000000 0.000000
vn 0.000000 -0.725472 -0.688251
vn 0.000000 -0.725472 -0.688251
vn 0.000000 -0.725472 -0.688251
vn 0.000000 -0.725472 -0.688251
vn 1.000000 0.000000 0.000000
vn 1.000000 0.000000 0.000000
vn 1.000000 0.000000 0.000000
vn -1.000000 0.000000 0.000000
vn -1.000000 0.000000 0.000000
vn -1.000000 0.000000 0.000000
vn 0.000000 0.000000 1.000000
vn 0.000000 0.000000 1.000000
vn 0.000000 0.000000 1.000000
vn 0.000000 0.000000 1.000000
vn 0.000000 1.000000 0.000000
vn 0.000000 1.000000 0.000000
vn 0.000000 1.000000 0.000000
vn 0.000000 1.000000 0.000000
vn 0.000000 0.000000 -1.000000
vn 0.000000 0.000000 -1.000000
vn 0.000000 0.000000 -1.000000
vn 0.000000 0.000000 -1.000000
vn 0.000000 -1.000000 0.000000
vn 0.000000 -1.000000 0.000000
vn 0.000000 -1.000000 0.000000
vn 0.000000 -1.000000 0.000000
vn 1.000000 0.000000 0.000000
vn 1.000000 0.000000 0.000000
vn 1.000000 0.000000 0.000000
vn 1.000000 0.000000 0.000000
vn -1.000000 0.000000 0.000000
vn -1.000000 0.000000 0.000000
vn -1.000000 0.000000 0.000000
vn -1.000000 0.000000 0.000000
s off
g pCube7
usemtl initialShadingGroup
f 1/1/1 2/2/2 4/4/3 3/3/4
f 3/3/5 4/4/6 6/6/7 5/5/8
f 6/6/9 2/8/10 1/7/11 5/5/12
f 2/2/13 6/9/14 4/4/15
f 5/10/16 1/1/17 3/3/18
f 7/11/19 8/12/20 10/13/21 9/14/22
f 9/14/23 10/13/24 12/15/25 11/16/26
f 11/16/27 12/15/28 14/17/29 13/18/30
f 13/18/31 14/17/32 8/19/33 7/20/34
f 8/12/35 14/21/36 12/22/37 10/13/38
f 13/23/39 7/11/40 9/14/41 11/24/42
g default
v -1.280260 1.382499 -0.195928
v -1.280260 1.215832 -0.317019
v -1.280260 1.009821 -0.317019
v -1.280260 0.843154 -0.195928
v -1.280260 0.779493 0.000000
v -1.280260 0.843154 0.195928
v -1.280260 1.009821 0.317019
v -1.280260 1.215832 0.317019
v -1.280260 1.382499 0.195928
v -1.280260 1.446160 0.000000
v -1.280260 1.652171 -0.391857
v -1.280260 1.318838 -0.634038
v -1.280260 0.906815 -0.634038
v -1.280260 0.573482 -0.391857
v -1.280260 0.446160 0.000000
v -1.280260 0.573482 0.391857
v -1.280260 0.906815 0.634038
v -1.280260 1.318838 0.634038
v -1.280260 1.652171 0.391857
v -1.280260 1.779493 0.000000
v -1.280260 1.921844 -0.587785
v -1.280260 1.421844 -0.951057
v -1.280260 0.803810 -0.951057
v -1.280260 0.303810 -0.587785
v -1.280260 0.112827 0.000000
v -1.280260 0.303810 0.587785
v -1.280260 0.803810 0.951057
v -1.280260 1.421844 0.951057
v -1.280260 1.921844 0.587785
v -1.280260 2.112827 0.000000
v -1.423628 1.921844 -0.587785
v -1.423628 1.421844 -0.951057
v -1.423628 0.803810 -0.951057
v -1.423628 0.303810 -0.587785
v -1.423628 0.112827 0.000000
v -1.423628 0.303810 0.587785
v -1.423628 0.803810 0.951057
v -1.423628 1.421844 0.951057
v -1.423628 1.921844 0.587785
v -1.423628 2.112827 0.000000
v -1.423628 1.841494 -0.529408
v -1.423628 1.391153 -0.856600
v -1.423628 0.834501 -0.856600
v -1.423628 0.384160 -0.529408
v -1.423628 0.212145 0.000000
v -1.423628 0.384160 0.529408
v -1.423628 0.834501 0.856600
v -1.423628 1.391153 0.856600
v -1.423628 1.841494 0.529408
v -1.423628 2.013509 0.000000
v -1.423628 1.716832 -0.438836
v -1.423628 1.343536 -0.710052
v -1.423628 0.882117 -0.710051
v -1.423628 0.508821 -0.438836
v -1.423628 0.366235 0.000000
v -1.423628 0.508821 0.438836
v -1.423628 0.882117 0.710052
v -1.423628 1.343536 0.710052
v -1.423628 1.716832 0.438836
v -1.423628 1.859418 0.000000
v -1.280260 1.112827 0.000000
v -1.522136 1.921844 -0.587785
v -1.522136 1.421844 -0.951057
v -1.522136 1.391153 -0.856600
v -1.522136 1.841494 -0.529408
v -1.522136 0.803810 -0.951057
v -1.522136 0.834501 -0.856600
v -1.522136 0.303810 -0.587785
v -1.522136 0.384160 -0.529408
v -1.522136 0.112827 0.000000
v -1.522136 0.212145 0.000000
v -1.522136 0.303810 0.587785
v -1.522136 0.384160 0.529408
v -1.522136 0.803810 0.951057
v -1.522136 0.834501 0.856600
v -1.522136 1.421844 0.951057
v -1.522136 1.391153 0.856600
v -1.522136 1.921844 0.587785
v -1.522136 1.841494 0.529408
v -1.522136 2.112827 0.000000
v -1.522136 2.013509 0.000000
vt 0.542136 0.125636
vt 0.516095 0.106716
vt 0.483905 0.106716
vt 0.457864 0.125636
vt 0.447917 0.156250
vt 0.457864 0.186864
vt 0.483905 0.205784
vt 0.516095 0.205784
vt 0.542136 0.186864
vt 0.552083 0.156250
vt 0.584273 0.095022
vt 0.532189 0.057182
vt 0.467811 0.057182
vt 0.415727 0.095022
vt 0.395833 0.156250
vt 0.415727 0.217478
vt 0.467811 0.255318
vt 0.532189 0.255318
vt 0.584273 0.217478
vt 0.604167 0.156250
vt 0.626409 0.064409
vt 0.548284 0.007647
vt 0.451716 0.007647
vt 0.373591 0.064409
vt 0.343750 0.156250
vt 0.373591 0.248091
vt 0.451716 0.304853
vt 0.548284 0.304853
vt 0.626409 0.248091
vt 0.656250 0.156250
vt 0.375000 0.312500
vt 0.400000 0.312500
vt 0.425000 0.312500
vt 0.450000 0.312500
vt 0.475000 0.312500
vt 0.500000 0.312500
vt 0.525000 0.312500
vt 0.550000 0.312500
vt 0.575000 0.312500
vt 0.600000 0.312500
vt 0.625000 0.312500
vt 0.375000 0.688440
vt 0.400000 0.688440
vt 0.425000 0.688440
vt 0.450000 0.688440
vt 0.475000 0.688440
vt 0.500000 0.688440
vt 0.525000 0.688440
vt 0.550000 0.688440
vt 0.575000 0.688440
vt 0.600000 0.688440
vt 0.625000 0.688440
vt 0.626409 0.751909
vt 0.548284 0.695147
vt 0.451716 0.695147
vt 0.373591 0.751909
vt 0.343750 0.843750
vt 0.373591 0.935591
vt 0.451716 0.992353
vt 0.548284 0.992353
vt 0.626409 0.935591
vt 0.656250 0.843750
vt 0.584273 0.782522
vt 0.532189 0.744682
vt 0.467811 0.744682
vt 0.415727 0.782522
vt 0.395833 0.843750
vt 0.415727 0.904978
vt 0.467811 0.942818
vt 0.532189 0.942818
vt 0.584273 0.904978
vt 0.604167 0.843750
vt 0.542136 0.813136
vt 0.516095 0.794216
vt 0.483905 0.794216
vt 0.457864 0.813136
vt 0.447917 0.843750
vt 0.457864 0.874364
vt 0.483905 0.893284
vt 0.516095 0.893284
vt 0.542136 0.874364
vt 0.552083 0.843750
vt 0.500000 0.150000
vt 0.626409 0.935591
vt 0.548284 0.992353
vt 0.532189 0.942818
vt 0.584273 0.904978
vt 0.451716 0.992353
vt 0.467811 0.942818
vt 0.373591 0.935591
vt 0.415727 0.904978
vt 0.343750 0.843750
vt 0.395833 0.843750
vt 0.373591 0.751909
vt 0.415727 0.782522
vt 0.451716 0.695147
vt 0.467811 0.744682
vt 0.548284 0.695147
vt 0.532189 0.744682
vt 0.626409 0.751909
vt 0.584273 0.782522
vt 0.656250 0.843750
vt 0.604167 0.843750
vn 1.000000 0.000000 0.000000
vn 1.000000 0.000000 0.000000
vn 1.000000 0.000000 0.000000
vn 1.000000 0.000000 0.000000
vn 1.000000 0.000000 0.000000
vn 1.000000 0.000000 0.000000
vn 1.000000 0.000000 0.000000
vn 1.000000 -0.000000 0.000000
vn 1.000000 -0.000000 0.000000
vn 1.000000 -0.000000 0.000000
vn 1.000000 -0.000000 0.000000
vn 1.000000 -0.000000 0.000000
vn 1.000000 0.000000 0.000000
vn 1.000000 0.000000 0.000000
vn 1.000000 -0.000000 0.000000
vn 1.000000 0.000000 0.000000
vn 1.000000 -0.000000 0.000000
vn 1.000000 -0.000000 0.000000
vn 1.000000 0.000000 0.000000
vn 1.000000 -0.000000 0.000000
vn 0.840299 0.167525 -0.515590
vn 0.840299 0.438587 -0.318652
vn 0.840299 -0.167525 -0.515590
vn 0.840299 -0.438587 -0.318652
vn 0.840299 -0.542123 0.000000
vn 0.840299 -0.438587 0.318652
vn 0.840299 -0.167525 0.515590
vn 0.840299 0.167525 0.515590
vn 0.840299 0.438587 0.318652
vn 0.840299 0.542123 0.000000
vn 0.000000 0.309017 -0.951057
vn 0.000000 0.809017 -0.587785
vn 0.000000 -0.309017 -0.951057
vn 0.000000 -0.809017 -0.587785
vn 0.000000 -1.000000 0.000000
vn 0.000000 -0.809017 0.587785
vn 0.000000 -0.309017 0.951057
vn 0.000000 0.309017 0.951057
vn 0.000000 0.809017 0.587785
vn 0.000000 1.000000 0.000000
vn -0.608357 0.642087 -0.466504
vn -0.608357 0.245255 -0.754819
vn -0.787220 -0.190562 0.586490
vn -0.787220 -0.498898 0.362471
vn -0.608357 -0.245255 -0.754819
vn -0.787220 0.190562 0.586490
vn -0.608357 -0.642087 -0.466504
vn -0.787220 0.498898 0.362471
vn -0.608357 -0.793663 0.000000
vn -0.787221 0.616672 -0.000000
vn -0.608357 -0.642087 0.466504
vn -0.787220 0.498898 -0.362471
vn -0.608357 -0.245255 0.754819
vn -0.787220 0.190563 -0.586490
vn -0.608357 0.245256 0.754819
vn -0.787220 -0.190562 -0.586490
vn -0.608357 0.642088 0.466504
vn -0.787220 -0.498898 -0.362471
vn -0.608357 0.793663 0.000000
vn -0.787221 -0.616672 -0.000000
vn -0.752999 -0.532350 0.386775
vn -0.752999 -0.203340 0.625816
vn -1.000000 0.000000 0.000000
vn -1.000000 0.000000 0.000000
vn -0.752999 0.203340 0.625816
vn -1.000000 -0.000000 0.000000
vn -0.753000 0.532350 0.386775
vn -1.000000 -0.000000 0.000000
vn -0.752999 0.658021 -0.000000
vn -1.000000 0.000000 0.000000
vn -0.752999 0.532351 -0.386775
vn -1.000000 0.000000 0.000000
vn -0.752998 0.203340 -0.625817
vn -1.000000 0.000000 0.000000
vn -0.752998 -0.203340 -0.625817
vn -1.000000 0.000000 0.000000
vn -0.752999 -0.532351 -0.386775
vn -1.000000 -0.000000 0.000000
vn -0.753000 -0.658021 -0.000000
vn -1.000000 -0.000000 0.000000
vn 1.000000 -0.000000 0.000000
s 1
g pCylinder1
usemtl initialShadingGroup
f 15/25/43 16/26/44 26/36/45 25/35/46
f 16/26/44 17/27/47 27/37/48 26/36/45
f 17/27/47 18/28/49 28/38/50 27/37/48
f 18/28/49 19/29/51 29/39/52 28/38/50
f 19/29/51 20/30/53 30/40/54 29/39/52
f 20/30/53 21/31/55 31/41/56 30/40/54
f 21/31/55 22/32/57 32/42/58 31/41/56
f 22/32/57 23/33/59 33/43/60 32/42/58
f 23/33/59 24/34/61 34/44/62 33/43/60
f 24/34/61 15/25/43 25/35/46 34/44/62
f 25/35/46 26/36/45 36/46/63 35/45/64
f 26/36/45 27/37/48 37/47/65 36/46/63
f 27/37/48 28/38/50 38/48/66 37/47/65
f 28/38/50 29/39/52 39/49/67 38/48/66
f 29/39/52 30/40/54 40/50/68 39/49/67
f 30/40/54 31/41/56 41/51/69 40/50/68
f 31/41/56 32/42/58 42/52/70 41/51/69
f 32/42/58 33/43/60 43/53/71 42/52/70
f 33/43/60 34/44/62 44/54/72 43/53/71
f 34/44/62 25/35/46 35/45/64 44/54/72
f 35/55/64 36/56/63 46/67/73 45/66/74
f 36/56/63 37/57/65 47/68/75 46/67/73
f 37/57/65 38/58/66 48/69/76 47/68/75
f 38/58/66 39/59/67 49/70/77 48/69/76
f 39/59/67 40/60/68 50/71/78 49/70/77
f 40/60/68 41/61/69 51/72/79 50/71/78
f 41/61/69 42/62/70 52/73/80 51/72/79
f 42/62/70 43/63/71 53/74/81 52/73/80
f 43/63/71 44/64/72 54/75/82 53/74/81
f 44/64/72 35/65/64 45/76/74 54/75/82
f 76/108/83 77/109/84 78/110/85 79/111/86
f 77/109/84 80/112/87 81/113/88 78/110/85
f 80/112/87 82/114/89 83/115/90 81/113/88
f 82/114/89 84/116/91 85/117/92 83/115/90
f 84/116/91 86/118/93 87/119/94 85/117/92
f 86/118/93 88/120/95 89/121/96 87/119/94
f 88/120/95 90/122/97 91/123/98 89/121/96
f 90/122/97 92/124/99 93/125/100 91/123/98
f 92/124/99 94/126/101 95/127/102 93/125/100
f 94/126/101 76/108/83 79/111/86 95/127/102
f 55/95/103 56/94/104 66/104/105 65/105/106
f 56/94/104 57/93/107 67/103/108 66/104/105
f 57/93/107 58/92/109 68/102/110 67/103/108
f 58/92/109 59/91/111 69/101/112 68/102/110
f 59/91/111 60/90/113 70/100/114 69/101/112
f 60/90/113 61/89/115 71/99/116 70/100/114
f 61/89/115 62/88/117 72/98/118 71/99/116
f 62/88/117 63/87/119 73/97/120 72/98/118
f 63/87/119 64/96/121 74/106/122 73/97/120
f 64/96/121 55/95/103 65/105/106 74/106/122
f 16/26/44 15/25/43 75/107/123
f 17/27/47 16/26/44 75/107/123
f 18/28/49 17/27/47 75/107/123
f 19/29/51 18/28/49 75/107/123
f 20/30/53 19/29/51 75/107/123
f 21/31/55 20/30/53 75/107/123
f 22/32/57 21/31/55 75/107/123
f 23/33/59 22/32/57 75/107/123
f 24/34/61 23/33/59 75/107/123
f 15/25/43 24/34/61 75/107/123
f 45/85/74 46/84/73 77/109/84 76/108/83
f 56/94/104 55/95/103 79/111/86 78/110/85
f 46/84/73 47/83/75 80/112/87 77/109/84
f 57/93/107 56/94/104 78/110/85 81/113/88
f 47/83/75 48/82/76 82/114/89 80/112/87
f 58/92/109 57/93/107 81/113/88 83/115/90
f 48/82/76 49/81/77 84/116/91 82/114/89
f 59/91/111 58/92/109 83/115/90 85/117/92
f 49/81/77 50/80/78 86/118/93 84/116/91
f 60/90/113 59/91/111 85/117/92 87/119/94
f 50/80/78 51/79/79 88/120/95 86/118/93
f 61/89/115 60/90/113 87/119/94 89/121/96
f 51/79/79 52/78/80 90/122/97 88/120/95
f 62/88/117 61/89/115 89/121/96 91/123/98
f 52/78/80 53/77/81 92/124/99 90/122/97
f 63/87/119 62/88/117 91/123/98 93/125/100
f 53/77/81 54/86/82 94/126/101 92/124/99
f 64/96/121 63/87/119 93/125/100 95/127/102
f 54/86/82 45/85/74 76/108/83 94/126/101
f 55/95/103 64/96/121 95/127/102 79/111/86
g default
v 0.195537 2.254632 0.661927
v 0.623127 3.158605 0.661927
v 0.151013 2.275693 0.661927
v 0.578603 3.179665 0.661927
v 0.151013 2.275693 -0.661927
v 0.578603 3.179665 -0.661927
v 0.195537 2.254632 -0.661927
v 0.623127 3.158605 -0.661927
v -0.827387 2.249982 0.661927
v 0.172613 2.249982 0.661927
v -0.827387 2.299236 0.661927
v 0.172613 2.299236 0.661927
v -0.827387 2.299236 -0.661927
v 0.172613 2.299236 -0.661927
v -0.827387 2.249982 -0.661927
v 0.172613 2.249982 -0.661927
vt 0.375000 0.000000
vt 0.625000 0.000000
vt 0.375000 0.250000
vt 0.625000 0.250000
vt 0.375000 0.500000
vt 0.625000 0.500000
vt 0.375000 0.750000
vt 0.625000 0.750000
vt 0.375000 1.000000
vt 0.625000 1.000000
vt 0.875000 0.000000
vt 0.875000 0.250000
vt 0.125000 0.000000
vt 0.125000 0.250000
vt 0.375000 0.000000
vt 0.625000 0.000000
vt 0.625000 0.250000
vt 0.375000 0.250000
vt 0.625000 0.500000
vt 0.375000 0.500000
vt 0.625000 0.750000
vt 0.375000 0.750000
vt 0.625000 1.000000
vt 0.375000 1.000000
vt 0.875000 0.000000
vt 0.875000 0.250000
vt 0.125000 0.000000
vt 0.125000 0.250000
vn -0.000000 0.000000 1.000000
vn -0.000000 0.000000 1.000000
vn -0.000000 0.000000 1.000000
vn -0.000000 0.000000 1.000000
vn -0.903973 0.427590 0.000000
vn -0.903973 0.427590 0.000000
vn -0.903973 0.427590 0.000000
vn -0.903973 0.427590 0.000000
vn -0.000000 0.000000 -1.000000
vn -0.000000 0.000000 -1.000000
vn -0.000000 0.000000 -1.000000
vn -0.000000 0.000000 -1.000000
vn 0.903973 -0.427590 0.000000
vn 0.903973 -0.427590 0.000000
vn 0.903973 -0.427590 0.000000
vn 0.903973 -0.427590 0.000000
vn 0.427591 0.903973 0.000000
vn 0.427591 0.903973 0.000000
vn 0.427591 0.903973 0.000000
vn 0.427591 0.903973 0.000000
vn -0.427591 -0.903973 0.000000
vn -0.427591 -0.903973 0.000000
vn -0.427591 -0.903973 0.000000
vn -0.427591 -0.903973 0.000000
vn 0.000000 0.000000 1.000000
vn 0.000000 0.000000 1.000000
vn 0.000000 0.000000 1.000000
vn 0.000000 0.000000 1.000000
vn 0.000000 1.000000 0.000000
vn 0.000000 1.000000 0.000000
vn 0.000000 1.000000 0.000000
vn 0.000000 1.000000 0.000000
vn 0.000000 0.000000 -1.000000
vn 0.000000 0.000000 -1.000000
vn 0.000000 0.000000 -1.000000
vn 0.000000 0.000000 -1.000000
vn 0.000000 -1.000000 0.000000
vn 0.000000 -1.000000 0.000000
vn 0.000000 -1.000000 0.000000
vn 0.000000 -1.000000 0.000000
vn 1.000000 0.000000 0.000000
vn 1.000000 0.000000 0.000000
vn 1.000000 0.000000 0.000000
vn 1.000000 0.000000 0.000000
vn -1.000000 0.000000 0.000000
vn -1.000000 0.000000 0.000000
vn -1.000000 0.000000 0.000000
vn -1.000000 0.000000 0.000000
s off
g pCube4
usemtl initialShadingGroup
f 96/128/124 97/129/125 99/131/126 98/130/127
f 98/130/128 99/131/129 101/133/130 100/132/131
f 100/132/132 101/133/133 103/135/134 102/134/135
f 102/134/136 103/135/137 97/137/138 96/136/139
f 97/129/140 103/138/141 101/139/142 99/131/143
f 102/140/144 96/128/145 98/130/146 100/141/147
f 104/142/148 105/143/149 107/144/150 106/145/151
f 106/145/152 107/144/153 109/146/154 108/147/155
f 108/147/156 109/146/157 111/148/158 110/149/159
f 110/149/160 111/148/161 105/150/162 104/151/163
f 105/143/164 111/152/165 109/153/166 107/144/167
f 110/154/168 104/142/169 106/145/170 108/155/171
g default
v -1.876427 1.788488 -0.490897
v -1.876427 1.370906 -0.794288
v -1.876427 0.854747 -0.794287
v -1.876427 0.437166 -0.490896
v -1.876427 0.277664 0.000000
v -1.876427 0.437166 0.490897
v -1.876427 0.854747 0.794287
v -1.876427 1.370906 0.794287
v -1.876427 1.788488 0.490896
v -1.876427 1.947990 0.000000
v -1.876427 1.112827 0.000000
v -1.378783 1.788488 -0.490897
v -1.378783 1.370906 -0.794288
v -1.378783 0.854747 -0.794287
v -1.378783 0.437166 -0.490896
v -1.378783 0.277664 0.000000
v -1.378783 0.437166 0.490897
v -1.378783 0.854747 0.794287
v -1.378783 1.370906 0.794287
v -1.378783 1.788488 0.490896
v -1.378783 1.947990 0.000000
vt 0.584273 0.782522
vt 0.532189 0.744682
vt 0.467811 0.744682
vt 0.415727 0.782522
vt 0.395833 0.843750
vt 0.415727 0.904978
vt 0.467811 0.942818
vt 0.532189 0.942818
vt 0.584273 0.904978
vt 0.604167 0.843750
vt 0.500000 0.837500
vt 0.000000 0.000000
vt 1.000000 0.000000
vt 1.000000 1.000000
vt 0.000000 1.000000
vt 0.000000 0.000000
vt 1.000000 0.000000
vt 1.000000 1.000000
vt 0.000000 1.000000
vt 0.000000 0.000000
vt 1.000000 0.000000
vt 1.000000 1.000000
vt 0.000000 1.000000
vt 0.000000 0.000000
vt 1.000000 0.000000
vt 1.000000 1.000000
vt 0.000000 1.000000
vt 0.000000 0.000000
vt 1.000000 0.000000
vt 1.000000 1.000000
vt 0.000000 1.000000
vt 0.000000 0.000000
vt 1.000000 0.000000
vt 1.000000 1.000000
vt 0.000000 1.000000
vt 0.000000 0.000000
vt 1.000000 0.000000
vt 1.000000 1.000000
vt 0.000000 1.000000
vt 0.000000 0.000000
vt 1.000000 0.000000
vt 1.000000 1.000000
vt 0.000000 1.000000
vt 0.000000 0.000000
vt 1.000000 0.000000
vt 1.000000 1.000000
vt 0.000000 1.000000
vt 0.000000 0.000000
vt 1.000000 0.000000
vt 1.000000 1.000000
vt 0.000000 1.000000
vn -0.557357 0.256568 -0.789636
vn -1.000000 -0.000000 0.000000
vn -0.557357 0.671705 -0.488022
vn -0.557357 -0.256569 -0.789636
vn -0.557357 -0.671705 -0.488022
vn -0.557357 -0.830273 0.000000
vn -0.557357 -0.671705 0.488022
vn -0.557357 -0.256568 0.789636
vn -0.557357 0.256569 0.789636
vn -0.557357 0.671705 0.488022
vn -0.557357 0.830273 0.000000
vn 0.000000 0.809017 -0.587785
vn 0.000000 0.309017 -0.951057
vn 0.000000 -0.309017 -0.951056
vn 0.000000 -0.809017 -0.587785
vn 0.000000 -1.000000 0.000000
vn 0.000000 -0.809017 0.587785
vn 0.000000 -0.309017 0.951057
vn 0.000000 0.309017 0.951056
vn 0.000000 0.809017 0.587785
vn 0.000000 1.000000 0.000000
s 1
g pCylinder2
usemtl initialShadingGroup
f 113/163/172 122/166/173 112/164/174
f 114/162/175 122/166/173 113/163/172
f 115/161/176 122/166/173 114/162/175
f 116/160/177 122/166/173 115/161/176
f 117/159/178 122/166/173 116/160/177
f 118/158/179 122/166/173 117/159/178
f 119/157/180 122/166/173 118/158/179
f 120/156/181 122/166/173 119/157/180
f 121/165/182 122/166/173 120/156/181
f 112/164/174 122/166/173 121/165/182
f 113/167/172 112/168/174 123/169/183 124/170/184
f 114/171/175 113/172/172 124/173/184 125/174/185
f 115/175/176 114/176/175 125/177/185 126/178/186
f 116/179/177 115/180/176 126/181/186 127/182/187
f 117/183/178 116/184/177 127/185/187 128/186/188
f 118/187/179 117/188/178 128/189/188 129/190/189
f 119/191/180 118/192/179 129/193/189 130/194/190
f 120/195/181 119/196/180 130/197/190 131/198/191
f 121/199/182 120/200/181 131/201/191 132/202/192
f 112/203/174 121/204/182 132/205/192 123/206/183
g default
v -1.305476 0.034431 1.095247
v 0.885018 0.034431 1.095247
v -1.305476 2.224925 1.095247
v 0.885018 2.224925 1.095247
v -1.305476 2.224925 -1.095247
v 0.885018 2.224925 -1.095247
v -1.305476 0.034431 -1.095247
v 0.885018 0.034431 -1.095247
vt 0.375000 0.000000
vt 0.625000 0.000000
vt 0.375000 0.250000
vt 0.625000 0.250000
vt 0.375000 0.500000
vt 0.625000 0.500000
vt 0.375000 0.750000
vt 0.625000 0.750000
vt 0.375000 1.000000
vt 0.625000 1.000000
vt 0.875000 0.000000
vt 0.875000 0.250000
vt 0.125000 0.000000
vt 0.125000 0.250000
vn 0.000000 0.000000 1.000000
vn 0.000000 0.000000 1.000000
vn 0.000000 0.000000 1.000000
vn 0.000000 0.000000 1.000000
vn 0.000000 1.000000 0.000000
vn 0.000000 1.000000 0.000000
vn 0.000000 1.000000 0.000000
vn 0.000000 1.000000 0.000000
vn 0.000000 0.000000 -1.000000
vn 0.000000 0.000000 -1.000000
vn 0.000000 0.000000 -1.000000
vn 0.000000 0.000000 -1.000000
vn 0.000000 -1.000000 0.000000
vn 0.000000 -1.000000 0.000000
vn 0.000000 -1.000000 0.000000
vn 0.000000 -1.000000 0.000000
vn 1.000000 0.000000 0.000000
vn 1.000000 0.000000 0.000000
vn 1.000000 0.000000 0.000000
vn 1.000000 0.000000 0.000000
vn -1.000000 0.000000 0.000000
vn -1.000000 0.000000 0.000000
vn -1.000000 0.000000 0.000000
vn -1.000000 0.000000 0.000000
s off
g pCube1
usemtl initialShadingGroup
f 133/207/193 134/208/194 136/210/195 135/209/196
f 135/209/197 136/210/198 138/212/199 137/211/200
f 137/211/201 138/212/202 140/214/203 139/213/204
f 139/213/205 140/214/206 134/216/207 133/215/208
f 134/208/209 140/217/210 138/218/211 136/210/212
f 139/219/213 133/207/214 135/209/215 137/220/216
