# This file uses centimeters as units for non-parametric coordinates.

mtllib Start Beacon.mtl
g default
v 0.906290 0.195598 -0.658459
v 0.346172 0.195598 -1.065408
v -0.346172 0.195598 -1.065408
v -0.906290 0.195598 -0.658458
v -1.120236 0.195598 0.000000
v -0.906290 0.195598 0.658458
v -0.346172 0.195598 1.065408
v 0.346172 0.195598 1.065408
v 0.906290 0.195598 0.658458
v 1.120236 0.195598 0.000000
v 1.062848 0.461950 -0.772204
v 0.405972 0.461950 -1.249453
v -0.405972 0.461950 -1.249453
v -1.062848 0.461950 -0.772204
v -1.313752 0.461950 0.000000
v -1.062848 0.461950 0.772204
v -0.405972 0.461950 1.249453
v 0.405972 0.461950 1.249453
v 1.062848 0.461950 0.772204
v 1.313752 0.461950 0.000000
v 1.316164 0.360213 -0.956249
v 0.502730 0.360213 -1.547243
v -0.502730 0.360213 -1.547243
v -1.316164 0.360213 -0.956249
v -1.626868 0.360213 0.000000
v -1.316164 0.360213 0.956249
v -0.502730 0.360213 1.547243
v 0.502730 0.360213 1.547243
v 1.316164 0.360213 0.956249
v 1.626868 0.360213 0.000000
v 1.316164 -0.061514 -0.956249
v 0.502730 -0.061514 -1.547243
v -0.502730 -0.061514 -1.547243
v -1.316164 -0.061514 -0.956249
v -1.626868 -0.061514 0.000000
v -1.316164 -0.061514 0.956249
v -0.502730 -0.061514 1.547243
v 0.502730 -0.061514 1.547243
v 1.316164 -0.061514 0.956249
v 1.626868 -0.061514 0.000000
v 1.062848 -0.070754 -0.772204
v 0.405972 -0.070754 -1.249453
v -0.405972 -0.070754 -1.249453
v -1.062848 -0.070754 -0.772204
v -1.313752 -0.070754 0.000000
v -1.062848 -0.070754 0.772204
v -0.405972 -0.070754 1.249453
v 0.405972 -0.070754 1.249453
v 1.062848 -0.070754 0.772204
v 1.313752 -0.070754 0.000000
vt 0.000000 1.000000
vt 0.100000 1.000000
vt 0.200000 1.000000
vt 0.300000 1.000000
vt 0.400000 1.000000
vt 0.500000 1.000000
vt 0.600000 1.000000
vt 0.700000 1.000000
vt 0.800000 1.000000
vt 0.900000 1.000000
vt 1.000000 1.000000
vt 0.000000 0.800000
vt 0.100000 0.800000
vt 0.200000 0.800000
vt 0.300000 0.800000
vt 0.400000 0.800000
vt 0.500000 0.800000
vt 0.600000 0.800000
vt 0.700000 0.800000
vt 0.800000 0.800000
vt 0.900000 0.800000
vt 1.000000 0.800000
vt 0.000000 0.600000
vt 0.100000 0.600000
vt 0.200000 0.600000
vt 0.300000 0.600000
vt 0.400000 0.600000
vt 0.500000 0.600000
vt 0.600000 0.600000
vt 0.700000 0.600000
vt 0.800000 0.600000
vt 0.900000 0.600000
vt 1.000000 0.600000
vt 0.000000 0.400000
vt 0.100000 0.400000
vt 0.200000 0.400000
vt 0.300000 0.400000
vt 0.400000 0.400000
vt 0.500000 0.400000
vt 0.600000 0.400000
vt 0.700000 0.400000
vt 0.800000 0.400000
vt 0.900000 0.400000
vt 1.000000 0.400000
vt 0.000000 0.200000
vt 0.100000 0.200000
vt 0.200000 0.200000
vt 0.300000 0.200000
vt 0.400000 0.200000
vt 0.500000 0.200000
vt 0.600000 0.200000
vt 0.700000 0.200000
vt 0.800000 0.200000
vt 0.900000 0.200000
vt 1.000000 0.200000
vt 0.000000 0.000000
vt 0.100000 0.000000
vt 0.200000 0.000000
vt 0.300000 0.000000
vt 0.400000 0.000000
vt 0.500000 0.000000
vt 0.600000 0.000000
vt 0.700000 0.000000
vt 0.800000 0.000000
vt 0.900000 0.000000
vt 1.000000 0.000000
vn -0.483572 0.568473 0.665580
vn -0.483572 0.568473 0.665580
vn -0.483572 0.568473 0.665580
vn -0.483572 0.568473 0.665580
vn 0.000000 0.568473 0.822702
vn 0.000000 0.568473 0.822702
vn 0.000000 0.568473 0.822702
vn 0.000000 0.568473 0.822702
vn 0.483572 0.568473 0.665580
vn 0.483572 0.568473 0.665580
vn 0.483572 0.568473 0.665580
vn 0.483572 0.568473 0.665580
vn 0.782436 0.568473 0.254229
vn 0.782436 0.568473 0.254229
vn 0.782436 0.568473 0.254229
vn 0.782436 0.568473 0.254229
vn 0.782436 0.568473 -0.254229
vn 0.782436 0.568473 -0.254229
vn 0.782436 0.568473 -0.254229
vn 0.782436 0.568473 -0.254229
vn 0.483572 0.568473 -0.665580
vn 0.483572 0.568473 -0.665580
vn 0.483572 0.568473 -0.665580
vn 0.483572 0.568473 -0.665580
vn 0.000000 0.568473 -0.822702
vn 0.000000 0.568473 -0.822702
vn 0.000000 0.568473 -0.822702
vn 0.000000 0.568473 -0.822702
vn -0.483572 0.568473 -0.665580
vn -0.483572 0.568473 -0.665580
vn -0.483572 0.568473 -0.665580
vn -0.483572 0.568473 -0.665580
vn -0.782436 0.568473 -0.254229
vn -0.782436 0.568473 -0.254229
vn -0.782436 0.568473 -0.254229
vn -0.782436 0.568473 -0.254229
vn -0.782436 0.568473 0.254229
vn -0.782436 0.568473 0.254229
vn -0.782436 0.568473 0.254229
vn -0.782436 0.568473 0.254229
vn 0.190028 0.946298 -0.261551
vn 0.190028 0.946298 -0.261551
vn 0.190028 0.946298 -0.261551
vn 0.190028 0.946298 -0.261551
vn -0.000000 0.946299 -0.323294
vn -0.000000 0.946299 -0.323294
vn -0.000000 0.946299 -0.323294
vn -0.000000 0.946299 -0.323294
vn -0.190028 0.946299 -0.261550
vn -0.190028 0.946299 -0.261550
vn -0.190028 0.946299 -0.261550
vn -0.190028 0.946299 -0.261550
vn -0.307471 0.946299 -0.099903
vn -0.307471 0.946299 -0.099903
vn -0.307471 0.946299 -0.099903
vn -0.307471 0.946299 -0.099903
vn -0.307471 0.946299 0.099903
vn -0.307471 0.946299 0.099903
vn -0.307471 0.946299 0.099903
vn -0.307471 0.946299 0.099903
vn -0.190028 0.946299 0.261550
vn -0.190028 0.946299 0.261550
vn -0.190028 0.946299 0.261550
vn -0.190028 0.946299 0.261550
vn 0.000000 0.946299 0.323294
vn 0.000000 0.946299 0.323294
vn 0.000000 0.946299 0.323294
vn 0.000000 0.946299 0.323294
vn 0.190028 0.946298 0.261551
vn 0.190028 0.946299 0.261551
vn 0.190028 0.946299 0.261551
vn 0.190028 0.946299 0.261551
vn 0.307471 0.946298 0.099903
vn 0.307471 0.946298 0.099903
vn 0.307471 0.946298 0.099903
vn 0.307471 0.946299 0.099903
vn 0.307471 0.946299 -0.099903
vn 0.307471 0.946298 -0.099903
vn 0.307471 0.946298 -0.099903
vn 0.307471 0.946298 -0.099903
vn 0.587785 0.000000 -0.809017
vn 0.587785 0.000000 -0.809017
vn 0.587785 0.000000 -0.809017
vn 0.587785 0.000000 -0.809017
vn -0.000000 0.000000 -1.000000
vn -0.000000 0.000000 -1.000000
vn -0.000000 0.000000 -1.000000
vn -0.000000 0.000000 -1.000000
vn -0.587785 0.000000 -0.809017
vn -0.587785 0.000000 -0.809017
vn -0.587785 0.000000 -0.809017
vn -0.587785 0.000000 -0.809017
vn -0.951057 0.000000 -0.309017
vn -0.951057 0.000000 -0.309017
vn -0.951057 0.000000 -0.309017
vn -0.951057 0.000000 -0.309017
vn -0.951057 0.000000 0.309017
vn -0.951057 0.000000 0.309017
vn -0.951057 0.000000 0.309017
vn -0.951057 0.000000 0.309017
vn -0.587785 0.000000 0.809017
vn -0.587785 0.000000 0.809017
vn -0.587785 0.000000 0.809017
vn -0.587785 0.000000 0.809017
vn 0.000000 0.000000 1.000000
vn 0.000000 0.000000 1.000000
vn 0.000000 0.000000 1.000000
vn 0.000000 0.000000 1.000000
vn 0.587785 0.000000 0.809017
vn 0.587785 0.000000 0.809017
vn 0.587785 0.000000 0.809017
vn 0.587785 0.000000 0.809017
vn 0.951057 0.000000 0.309017
vn 0.951057 0.000000 0.309017
vn 0.951057 0.000000 0.309017
vn 0.951057 0.000000 0.309017
vn 0.951057 0.000000 -0.309017
vn 0.951057 0.000000 -0.309017
vn 0.951057 0.000000 -0.309017
vn 0.951057 0.000000 -0.309017
vn -0.483572 -0.568473 0.665580
vn -0.483572 -0.568473 0.665580
vn -0.483572 -0.568473 0.665580
vn -0.483572 -0.568473 0.665580
vn 0.000000 -0.568473 0.822702
vn 0.000000 -0.568473 0.822702
vn 0.000000 -0.568473 0.822702
vn 0.000000 -0.568473 0.822702
vn 0.483572 -0.568473 0.665580
vn 0.483572 -0.568473 0.665580
vn 0.483572 -0.568473 0.665580
vn 0.483572 -0.568473 0.665580
vn 0.782436 -0.568473 0.254229
vn 0.782436 -0.568473 0.254229
vn 0.782436 -0.568473 0.254229
vn 0.782436 -0.568473 0.254229
vn 0.782436 -0.568473 -0.254229
vn 0.782436 -0.568473 -0.254229
vn 0.782436 -0.568473 -0.254229
vn 0.782436 -0.568473 -0.254229
vn 0.483572 -0.568473 -0.665580
vn 0.483572 -0.568473 -0.665580
vn 0.483572 -0.568473 -0.665580
vn 0.483572 -0.568473 -0.665580
vn 0.000000 -0.568473 -0.822702
vn 0.000000 -0.568473 -0.822702
vn 0.000000 -0.568473 -0.822702
vn 0.000000 -0.568473 -0.822702
vn -0.483572 -0.568473 -0.665580
vn -0.483572 -0.568473 -0.665580
vn -0.483572 -0.568473 -0.665580
vn -0.483572 -0.568473 -0.665580
vn -0.782436 -0.568473 -0.254229
vn -0.782436 -0.568473 -0.254229
vn -0.782436 -0.568473 -0.254229
vn -0.782436 -0.568473 -0.254229
vn -0.782436 -0.568473 0.254229
vn -0.782436 -0.568473 0.254229
vn -0.782436 -0.568473 0.254229
vn -0.782436 -0.568473 0.254229
s off
g pTorus1
usemtl initialShadingGroup
f 2/2/1 1/1/2 11/12/3 12/13/4
f 3/3/5 2/2/6 12/13/7 13/14/8
f 4/4/9 3/3/10 13/14/11 14/15/12
f 5/5/13 4/4/14 14/15/15 15/16/16
f 6/6/17 5/5/18 15/16/19 16/17/20
f 7/7/21 6/6/22 16/17/23 17/18/24
f 8/8/25 7/7/26 17/18/27 18/19/28
f 9/9/29 8/8/30 18/19/31 19/20/32
f 10/10/33 9/9/34 19/20/35 20/21/36
f 1/11/37 10/10/38 20/21/39 11/22/40
f 12/13/41 11/12/42 21/23/43 22/24/44
f 13/14/45 12/13/46 22/24/47 23/25/48
f 14/15/49 13/14/50 23/25/51 24/26/52
f 15/16/53 14/15/54 24/26/55 25/27/56
f 16/17/57 15/16/58 25/27/59 26/28/60
f 17/18/61 16/17/62 26/28/63 27/29/64
f 18/19/65 17/18/66 27/29/67 28/30/68
f 19/20/69 18/19/70 28/30/71 29/31/72
f 20/21/73 19/20/74 29/31/75 30/32/76
f 11/22/77 20/21/78 30/32/79 21/33/80
f 22/24/81 21/23/82 31/34/83 32/35/84
f 23/25/85 22/24/86 32/35/87 33/36/88
f 24/26/89 23/25/90 33/36/91 34/37/92
f 25/27/93 24/26/94 34/37/95 35/38/96
f 26/28/97 25/27/98 35/38/99 36/39/100
f 27/29/101 26/28/102 36/39/103 37/40/104
f 28/30/105 27/29/106 37/40/107 38/41/108
f 29/31/109 28/30/110 38/41/111 39/42/112
f 30/32/113 29/31/114 39/42/115 40/43/116
f 21/33/117 30/32/118 40/43/119 31/44/120
f 42/46/121 41/45/122 1/56/123 2/57/124
f 43/47/125 42/46/126 2/57/127 3/58/128
f 44/48/129 43/47/130 3/58/131 4/59/132
f 45/49/133 44/48/134 4/59/135 5/60/136
f 46/50/137 45/49/138 5/60/139 6/61/140
f 47/51/141 46/50/142 6/61/143 7/62/144
f 48/52/145 47/51/146 7/62/147 8/63/148
f 49/53/149 48/52/150 8/63/151 9/64/152
f 50/54/153 49/53/154 9/64/155 10/65/156
f 41/55/157 50/54/158 10/65/159 1/66/160
g default
v 0.896743 0.000000 -0.651522
v 0.342525 0.000000 -1.054184
v -0.342525 0.000000 -1.054184
v -0.896743 0.000000 -0.651522
v -1.108435 0.000000 0.000000
v -0.896743 0.000000 0.651522
v -0.342525 0.000000 1.054184
v 0.342525 0.000000 1.054184
v 0.896743 0.000000 0.651522
v 1.108435 0.000000 0.000000
v 0.896743 0.435567 -0.651522
v 0.342525 0.435567 -1.054184
v -0.342525 0.435567 -1.054184
v -0.896743 0.435567 -0.651522
v -1.108435 0.435567 0.000000
v -0.896743 0.435567 0.651522
v -0.342525 0.435567 1.054184
v 0.342525 0.435567 1.054184
v 0.896743 0.435567 0.651522
v 1.108435 0.435567 0.000000
v 0.000000 0.435567 0.000000
vt 0.375000 0.500470
vt 0.400000 0.500470
vt 0.425000 0.500470
vt 0.450000 0.500470
vt 0.475000 0.500470
vt 0.500000 0.500470
vt 0.525000 0.500470
vt 0.550000 0.500470
vt 0.575000 0.500470
vt 0.600000 0.500470
vt 0.625000 0.500470
vt 0.375000 0.688440
vt 0.400000 0.688440
vt 0.425000 0.688440
vt 0.450000 0.688440
vt 0.475000 0.688440
vt 0.500000 0.688440
vt 0.525000 0.688440
vt 0.550000 0.688440
vt 0.575000 0.688440
vt 0.600000 0.688440
vt 0.625000 0.688440
vt 0.626409 0.751909
vt 0.548284 0.695147
vt 0.451716 0.695147
vt 0.373591 0.751909
vt 0.343750 0.843750
vt 0.373591 0.935591
vt 0.451716 0.992353
vt 0.548284 0.992353
vt 0.626409 0.935591
vt 0.656250 0.843750
vt 0.500000 0.837500
vn 0.587785 0.000000 -0.809017
vn 0.587785 0.000000 -0.809017
vn 0.587785 0.000000 -0.809017
vn 0.587785 0.000000 -0.809017
vn -0.000000 0.000000 -1.000000
vn -0.000000 0.000000 -1.000000
vn -0.000000 0.000000 -1.000000
vn -0.000000 0.000000 -1.000000
vn -0.587785 0.000000 -0.809017
vn -0.587785 0.000000 -0.809017
vn -0.587785 0.000000 -0.809017
vn -0.587785 0.000000 -0.809017
vn -0.951057 0.000000 -0.309017
vn -0.951057 0.000000 -0.309017
vn -0.951057 0.000000 -0.309017
vn -0.951057 0.000000 -0.309017
vn -0.951057 0.000000 0.309017
vn -0.951057 0.000000 0.309017
vn -0.951057 0.000000 0.309017
vn -0.951057 0.000000 0.309017
vn -0.587785 0.000000 0.809017
vn -0.587785 0.000000 0.809017
vn -0.587785 0.000000 0.809017
vn -0.587785 0.000000 0.809017
vn 0.000000 0.000000 1.000000
vn 0.000000 0.000000 1.000000
vn 0.000000 0.000000 1.000000
vn 0.000000 0.000000 1.000000
vn 0.587785 0.000000 0.809017
vn 0.587785 0.000000 0.809017
vn 0.587785 0.000000 0.809017
vn 0.587785 0.000000 0.809017
vn 0.951057 0.000000 0.309017
vn 0.951057 0.000000 0.309017
vn 0.951057 0.000000 0.309017
vn 0.951057 0.000000 0.309017
vn 0.951057 0.000000 -0.309017
vn 0.951057 0.000000 -0.309017
vn 0.951057 0.000000 -0.309017
vn 0.951057 0.000000 -0.309017
vn 0.000000 1.000000 -0.000000
vn 0.000000 1.000000 -0.000000
vn 0.000000 1.000000 -0.000000
vn 0.000000 1.000000 -0.000000
vn 0.000000 1.000000 -0.000000
vn 0.000000 1.000000 0.000000
vn 0.000000 1.000000 0.000000
vn 0.000000 1.000000 0.000000
vn 0.000000 1.000000 -0.000000
vn 0.000000 1.000000 -0.000000
vn 0.000000 1.000000 0.000000
s off
g pCylinder1
usemtl initialShadingGroup
f 51/67/161 52/68/162 62/79/163 61/78/164
f 52/68/165 53/69/166 63/80/167 62/79/168
f 53/69/169 54/70/170 64/81/171 63/80/172
f 54/70/173 55/71/174 65/82/175 64/81/176
f 55/71/177 56/72/178 66/83/179 65/82/180
f 56/72/181 57/73/182 67/84/183 66/83/184
f 57/73/185 58/74/186 68/85/187 67/84/188
f 58/74/189 59/75/190 69/86/191 68/85/192
f 59/75/193 60/76/194 70/87/195 69/86/196
f 60/76/197 51/77/198 61/88/199 70/87/200
s 1
f 61/97/201 62/96/202 71/99/203
f 62/96/202 63/95/204 71/99/203
f 63/95/204 64/94/205 71/99/203
f 64/94/205 65/93/206 71/99/203
f 65/93/206 66/92/207 71/99/203
f 66/92/207 67/91/208 71/99/203
f 67/91/208 68/90/209 71/99/203
f 68/90/209 69/89/210 71/99/203
f 69/89/210 70/98/211 71/99/203
f 70/98/211 61/97/201 71/99/203
